<svg version="1.2" xmlns="http://www.w3.org/2000/svg" viewBox="0 0 24 24" width="24" height="24">
	<style>
		.s0 { fill: #00adee } 
		.s1 { fill: #0f4ba0 } 
	</style>
	<path id="&lt;Path&gt;" class="s0" d="m9.87 1h4.27v3.98h3.99v4.28h-3.99v3.98h-4.27v-3.98h-3.99v-4.28h3.99z"/>
	<path id="&lt;Path&gt;" class="s1" d="m14.37 23c-0.56-6.05 6.43-3.64 7.59-8.57 0.38-1.62-0.58-5.17-0.1-8.19 0.08-0.48-0.06-0.67-0.5-0.39-2.61 1.8 1.02 7.71-3.63 8.88-0.76 0.19-0.73 0.13-0.08-0.21 1.22-0.65 2.02-1.48 2-2.77-0.02-1.34-0.2-0.99-0.63-0.35-1.25 1.88-4.21 1.37-5.75 3.85-1.34 2.14-1.37 6.71 1.1 7.75z"/>
	<path id="&lt;Path&gt;" class="s1" d="m9.86 23c0.56-6.05-6.43-3.64-7.59-8.57-0.38-1.62 0.57-5.17 0.1-8.19-0.08-0.48 0.06-0.67 0.5-0.39 2.61 1.8-1.03 7.71 3.63 8.88 0.76 0.19 0.73 0.13 0.08-0.21-1.22-0.65-2.02-1.48-2-2.77 0.02-1.34 0.2-0.99 0.62-0.35 1.26 1.88 4.22 1.37 5.76 3.85 1.34 2.14 1.37 6.71-1.1 7.75z"/>
</svg>